<svg xmlns="http://www.w3.org/2000/svg" version="1.1" xmlns:xlink="http://www.w3.org/1999/xlink" xmlns:svgjs="http://svgjs.dev/svgjs" width="1000" height="1125" viewBox="0 0 1000 1125"><g transform="matrix(1,0,0,1,0.00011477487282718357,0)"><svg viewBox="0 0 320 360" data-background-color="#ffffff" preserveAspectRatio="xMidYMid meet" height="1125" width="1000" xmlns="http://www.w3.org/2000/svg" xmlns:xlink="http://www.w3.org/1999/xlink"><g id="tight-bounds" transform="matrix(1,0,0,1,-0.00003672795929787753,0)"><svg viewBox="0 0 320 360" height="360" width="320"><g><svg></svg></g><g><svg viewBox="0 0 320 360" height="360" width="320"><g><path transform="translate(-32.1528,-12.1528) scale(3.84303,3.84303)" d="M88.492 50l1.711-2.963c2.946-5.102 1.198-11.626-3.904-14.572l-2.963-1.711v-3.422c0-5.891-4.776-10.667-10.667-10.667h-3.422l-1.711-2.963c-2.946-5.102-9.47-6.85-14.572-3.904l-2.964 1.71-2.963-1.711c-5.102-2.945-11.626-1.197-14.572 3.905l-1.711 2.963h-3.422c-5.891 0-10.667 4.776-10.667 10.667v3.422l-2.963 1.711c-5.102 2.946-6.85 9.47-3.904 14.572l1.71 2.963-1.711 2.963c-2.945 5.102-1.197 11.626 3.905 14.572l2.963 1.711v3.422c0 5.891 4.776 10.667 10.667 10.667h3.422l1.711 2.963c2.946 5.102 9.47 6.85 14.572 3.904l2.963-1.71 2.963 1.711c5.102 2.946 11.626 1.198 14.572-3.904l1.711-2.963h3.422c5.891 0 10.667-4.776 10.667-10.667v-3.422l2.963-1.711c5.102-2.946 6.85-9.47 3.904-14.572zM85.832 33.273c2.252 1.3 3.862 3.399 4.535 5.91 0.673 2.511 0.328 5.135-0.972 7.386l-1.441 2.497-4.618-7.999v-9.236zM73.72 73.72l-15.038 8.682h-17.364l-15.038-8.682-8.682-15.038v-17.364l8.682-15.038 15.038-8.682h17.364l15.038 8.682 8.682 15.038v17.364zM82.401 60.549v8.158l-7.065 4.079zM72.786 75.336l-4.079 7.065h-8.158zM57.065 83.335l-7.065 4.079-7.065-4.079zM39.451 82.401h-8.158l-4.079-7.065zM24.664 72.786l-7.065-4.079v-8.158zM16.665 57.065l-4.079-7.065 4.079-7.065zM17.599 39.451v-8.158l7.065-4.079zM27.214 24.664l4.079-7.065h8.158zM42.935 16.665l7.065-4.079 7.065 4.079zM60.549 17.599h8.158l4.079 7.065zM75.336 27.214l7.065 4.079v8.158zM83.335 42.935l4.079 7.065-4.079 7.065zM72.668 17.599c2.6 0 5.044 1.012 6.883 2.851 1.838 1.838 2.851 4.283 2.851 6.883v2.883l-7.999-4.618-4.618-7.999zM53.43 10.606c2.252-1.3 4.875-1.645 7.386-0.972 2.511 0.673 4.61 2.284 5.91 4.535l1.441 2.497h-9.236l-7.999-4.618zM33.273 14.168c1.3-2.252 3.399-3.862 5.91-4.535 2.511-0.673 5.135-0.328 7.386 0.972l2.497 1.441-7.999 4.618h-9.236zM17.599 27.332c0-2.6 1.012-5.044 2.851-6.883 1.838-1.838 4.283-2.851 6.883-2.851h2.883l-4.618 7.999-7.999 4.618zM10.606 46.57c-1.3-2.252-1.645-4.875-0.972-7.386 0.673-2.511 2.284-4.61 4.535-5.91l2.497-1.441v9.236l-4.618 7.999zM14.168 66.727c-2.252-1.3-3.862-3.399-4.535-5.91-0.673-2.511-0.328-5.135 0.972-7.386l1.441-2.497 4.618 7.999v9.236zM27.332 82.401c-2.6 0-5.044-1.012-6.883-2.851-1.838-1.838-2.851-4.283-2.851-6.883v-2.883l7.999 4.618 4.618 7.999zM46.57 89.394c-2.252 1.3-4.875 1.645-7.386 0.972-2.511-0.673-4.61-2.284-5.91-4.535l-1.441-2.497h9.236l7.999 4.618zM66.727 85.832c-1.3 2.252-3.399 3.862-5.91 4.535-2.511 0.673-5.135 0.328-7.386-0.972l-2.497-1.441 7.999-4.618h9.236zM82.401 72.668c0 2.6-1.012 5.044-2.851 6.883-1.838 1.838-4.283 2.851-6.883 2.851h-2.883l4.618-7.999 7.999-4.618zM90.367 60.816c-0.673 2.511-2.284 4.61-4.535 5.91l-2.497 1.441v-9.236l4.618-7.999 1.441 2.497c1.3 2.253 1.646 4.876 0.973 7.387z" fill="#7fdbff" fill-rule="nonzero" stroke="none" stroke-width="1" stroke-linecap="butt" stroke-linejoin="miter" stroke-miterlimit="10" stroke-dasharray="" stroke-dashoffset="0" font-family="none" font-weight="none" font-size="none" text-anchor="none" style="mix-blend-mode: normal" data-fill-palette-color="tertiary"></path></g><g transform="matrix(1,0,0,1,64,144.8688296661818)"><svg viewBox="0 0 192 70.26234066763644" height="70.26234066763644" width="192"><g><svg viewBox="0 0 340.03202614478596 124.43461489006046" height="70.26234066763644" width="192"><g><svg viewBox="0 0 192 124.43461489006046" height="124.43461489006046" width="192"><g id="textblocktransform"><svg viewBox="0 0 192 124.43461489006046" height="124.43461489006046" width="192" id="textblock"><g><svg viewBox="0 0 192 124.43461489006046" height="124.43461489006046" width="192"><g transform="matrix(1,0,0,1,0,0)"><svg width="192" viewBox="2.5 -35.5 55.55 36.00178571428572" height="124.43461489006046" data-palette-color="#7fdbff"><path d="M30.9-32.1L30.9-32.1Q31.3-31.8 31.35-31.43 31.4-31.05 31.15-30.65L31.15-30.65Q30.9-30.3 30.53-30.28 30.15-30.25 29.8-30.45L29.8-30.45Q27.7-31.9 25.23-32.75 22.75-33.6 19.95-33.6L19.95-33.6Q16.75-33.6 13.98-32.43 11.2-31.25 9.1-29.1 7-26.95 5.8-24 4.6-21.05 4.6-17.5L4.6-17.5Q4.6-13.95 5.8-11 7-8.05 9.1-5.9 11.2-3.75 13.98-2.58 16.75-1.4 19.95-1.4L19.95-1.4Q22.75-1.4 25.2-2.25 27.65-3.1 29.75-4.5L29.75-4.5Q30.1-4.75 30.5-4.7 30.9-4.65 31.15-4.3L31.15-4.3Q31.4-3.95 31.35-3.55 31.3-3.15 30.95-2.9L30.95-2.9Q29.75-2.05 27.93-1.25 26.1-0.45 24.05 0.03 22 0.5 19.95 0.5L19.95 0.5Q16.35 0.5 13.2-0.85 10.05-2.2 7.65-4.63 5.25-7.05 3.88-10.33 2.5-13.6 2.5-17.5L2.5-17.5Q2.5-21.4 3.88-24.68 5.25-27.95 7.65-30.38 10.05-32.8 13.2-34.15 16.35-35.5 19.95-35.5L19.95-35.5Q23-35.5 25.83-34.6 28.65-33.7 30.9-32.1ZM47.25 0.5L47.25 0.5Q43.35 0.55 40.55-0.8 37.75-2.15 35.15-4.75L35.15-4.75Q35.05-4.85 34.95-5.03 34.85-5.2 34.85-5.5L34.85-5.5Q34.85-5.9 35.2-6.28 35.55-6.65 35.95-6.65L35.95-6.65Q36.4-6.65 36.8-6.2L36.8-6.2Q38.8-3.9 41.47-2.7 44.15-1.5 47.05-1.5L47.05-1.5Q49.6-1.5 51.6-2.33 53.6-3.15 54.75-4.67 55.9-6.2 55.9-8.25L55.9-8.25Q55.85-10.8 54.5-12.35 53.15-13.9 51.02-14.9 48.9-15.9 46.55-16.75L46.55-16.75Q44.7-17.45 42.9-18.2 41.1-18.95 39.65-20.03 38.2-21.1 37.35-22.73 36.5-24.35 36.5-26.75L36.5-26.75Q36.5-29.2 37.82-31.18 39.15-33.15 41.62-34.33 44.1-35.5 47.5-35.5L47.5-35.5Q50.35-35.5 53.05-34.48 55.75-33.45 57.3-31.4L57.3-31.4Q57.8-30.7 57.8-30.35L57.8-30.35Q57.8-30 57.42-29.65 57.05-29.3 56.6-29.3L56.6-29.3Q56.2-29.3 55.95-29.6L55.95-29.6Q55.05-30.8 53.77-31.68 52.5-32.55 50.9-33.02 49.3-33.5 47.5-33.5L47.5-33.5Q45.05-33.5 43.05-32.7 41.05-31.9 39.85-30.43 38.65-28.95 38.65-26.8L38.65-26.8Q38.65-24.5 39.97-23.03 41.3-21.55 43.35-20.58 45.4-19.6 47.55-18.8L47.55-18.8Q49.45-18.15 51.32-17.38 53.2-16.6 54.72-15.45 56.25-14.3 57.15-12.55 58.05-10.8 58.05-8.15L58.05-8.15Q58.05-5.85 56.72-3.9 55.4-1.95 53-0.75 50.6 0.45 47.25 0.5Z" opacity="1" transform="matrix(1,0,0,1,0,0)" fill="#7fdbff" class="wordmark-text-0" data-fill-palette-color="primary" id="text-0"></path></svg></g></svg></g></svg></g></svg></g><g transform="matrix(1,0,0,1,221.37602614478592,7.833307445030229)"><svg viewBox="0 0 118.656 108.768" height="108.768" width="118.656"><g><svg xmlns="http://www.w3.org/2000/svg" xmlns:xlink="http://www.w3.org/1999/xlink" version="1.1" x="0" y="0" viewBox="0 1 24 22" style="enable-background:new 0 0 24 24;" xml:space="preserve" height="108.768" width="118.656" class="icon-icon-0" data-fill-palette-color="accent" id="icon-0"><g fill="#d498ca" data-fill-palette-color="accent"><path d="M21.5 1h-19C1.122 1 0 2.122 0 3.5v17C0 21.878 1.122 23 2.5 23h19c1.378 0 2.5-1.122 2.5-2.5v-17C24 2.122 22.878 1 21.5 1zM2.5 2h19C22.327 2 23 2.673 23 3.5V5H1V3.5C1 2.673 1.673 2 2.5 2zM21.5 22h-19C1.673 22 1 21.327 1 20.5V6h22v14.5C23 21.327 22.327 22 21.5 22z" fill="#d498ca" data-fill-palette-color="accent"></path><circle cx="2.5" cy="3.5" r="0.50" fill="#d498ca" data-fill-palette-color="accent"></circle><circle cx="4.5" cy="3.5" r="0.50" fill="#d498ca" data-fill-palette-color="accent"></circle><circle cx="6.5" cy="3.5" r="0.50" fill="#d498ca" data-fill-palette-color="accent"></circle><path d="M7.853 10.148c-0.195-0.195-0.512-0.195-0.707 0s-0.195 0.512 0 0.707l2.646 2.646-2.646 2.646c-0.195 0.195-0.195 0.512 0 0.707C7.244 16.951 7.372 17 7.5 17s0.256-0.049 0.353-0.145l3-3c0.195-0.195 0.195-0.512 0-0.707L7.853 10.148z" fill="#d498ca" data-fill-palette-color="accent"></path><path d="M17.5 15h-5c-0.276 0-0.5 0.224-0.5 0.5s0.224 0.5 0.5 0.5h5c0.276 0 0.5-0.224 0.5-0.5S17.776 15 17.5 15z" fill="#d498ca" data-fill-palette-color="accent"></path></g></svg></g></svg></g></svg></g></svg></g></svg></g><defs></defs></svg><rect width="320" height="360" fill="none" stroke="none" visibility="hidden"></rect></g></svg></g></svg>